<svg width="95" height="21" viewBox="0 0 95 21" fill="none" xmlns="http://www.w3.org/2000/svg">
<path d="M0 15.202H10.2183V12.6136H4.27792L7.54211 9.76222C8.12331 9.25667 8.61328 8.80503 9.01201 8.40733C9.41074 8.00289 9.71148 7.56474 9.91422 7.09289C10.117 6.61429 10.2183 6.01437 10.2183 5.29311C10.2183 4.3157 10.0021 3.45626 9.56956 2.71477C9.13703 1.97329 8.54232 1.39696 7.7854 0.985775C7.03525 0.567849 6.18372 0.358887 5.23082 0.358887C4.19006 0.358887 3.27771 0.557739 2.49376 0.955442C1.70981 1.35315 1.0982 1.916 0.658921 2.644C0.21964 3.372 0 4.23481 0 5.23244H2.83843C2.82491 4.828 2.91615 4.45389 3.11213 4.11011C3.30812 3.75959 3.58183 3.47985 3.93325 3.27089C4.29143 3.05518 4.70368 2.94733 5.16999 2.94733C5.83905 2.94733 6.37295 3.1664 6.77168 3.60455C7.17717 4.03596 7.37991 4.58533 7.37991 5.25266C7.37991 5.56274 7.2853 5.8964 7.09607 6.25366C6.90684 6.61092 6.58245 6.99178 6.12289 7.39622L0 12.8158V15.202Z" fill="white"/>
<path d="M18.9063 15.5256C20.5823 15.5256 21.988 15.111 23.1234 14.2819C24.2655 13.4528 25.0697 12.3304 25.536 10.9149L22.7584 10.1464C22.4881 11.0227 22.0319 11.7069 21.3899 12.199C20.7479 12.6911 19.92 12.9371 18.9063 12.9371C17.5208 12.9371 16.4767 12.4855 15.7739 11.5822C15.0778 10.6722 14.7297 9.45889 14.7297 7.94222C14.7297 6.42555 15.0778 5.21559 15.7739 4.31233C16.4767 3.40233 17.5208 2.94733 18.9063 2.94733C19.92 2.94733 20.7479 3.19337 21.3899 3.68544C22.0319 4.17078 22.4881 4.85496 22.7584 5.738L25.536 4.96955C25.0697 3.554 24.2655 2.43166 23.1234 1.60255C21.988 0.773442 20.5823 0.358887 18.9063 0.358887C17.4465 0.358887 16.1861 0.675701 15.1251 1.30933C14.0708 1.94296 13.2564 2.82937 12.682 3.96855C12.1143 5.10774 11.8305 6.43229 11.8305 7.94222C11.8305 9.45215 12.1143 10.7767 12.682 11.9159C13.2564 13.0551 14.0708 13.9415 15.1251 14.5751C16.1861 15.2087 17.4465 15.5256 18.9063 15.5256Z" fill="white"/>
<path d="M30.8093 15.5256C31.6541 15.5256 32.3637 15.3975 32.9381 15.1413C33.5193 14.8784 34.0532 14.4605 34.5398 13.8876V15.2222H36.9525V8.54889C36.9525 8.05007 36.9322 7.59844 36.8916 7.194C36.8511 6.78955 36.7227 6.38511 36.5064 5.98066C36.1212 5.25266 35.5535 4.74037 34.8034 4.44378C34.0532 4.14718 33.1949 3.99889 32.2285 3.99889C30.9107 3.99889 29.8699 4.282 29.1062 4.84822C28.3426 5.41444 27.8222 6.14918 27.5451 7.05244L30.0389 7.84111C30.2146 7.34229 30.5221 6.99515 30.9614 6.79966C31.4006 6.60418 31.823 6.50644 32.2285 6.50644C32.8773 6.50644 33.3605 6.62778 33.6781 6.87044C33.9958 7.10637 34.1816 7.48048 34.2357 7.99278C33.2084 8.14107 32.3028 8.286 31.5189 8.42755C30.735 8.56237 30.0794 8.72415 29.5523 8.91289C28.6737 9.23644 28.0553 9.67796 27.6972 10.2374C27.339 10.7902 27.1599 11.4474 27.1599 12.2091C27.1599 12.8158 27.2984 13.3719 27.5755 13.8774C27.8594 14.3763 28.2716 14.7773 28.8123 15.0807C29.3597 15.3773 30.0253 15.5256 30.8093 15.5256ZM31.3973 13.3618C30.9242 13.3618 30.5491 13.2573 30.272 13.0483C29.9949 12.8326 29.8564 12.5394 29.8564 12.1687C29.8564 11.8923 29.9442 11.6564 30.12 11.4609C30.2957 11.2587 30.5863 11.0767 30.9918 10.9149C31.3026 10.8003 31.6845 10.6958 32.1373 10.6014C32.5968 10.5003 33.2895 10.3723 34.2154 10.2172C34.2086 10.4801 34.1884 10.77 34.1546 11.0868C34.1208 11.3968 34.0465 11.6698 33.9316 11.9058C33.8572 12.0608 33.7153 12.2529 33.5058 12.4821C33.3031 12.7113 33.026 12.9169 32.6745 13.0989C32.3299 13.2741 31.9041 13.3618 31.3973 13.3618Z" fill="white"/>
<path d="M39.568 20.0756H42.3456V14.8279C42.7038 15.0503 43.0992 15.2222 43.5317 15.3436C43.971 15.4649 44.4474 15.5256 44.961 15.5256C45.968 15.5256 46.8499 15.2728 47.6069 14.7672C48.3638 14.2617 48.9517 13.5741 49.3707 12.7046C49.7965 11.835 50.0094 10.8542 50.0094 9.76222C50.0094 8.65 49.7931 7.66248 49.3606 6.79966C48.9348 5.93011 48.3334 5.24592 47.5562 4.74711C46.779 4.24829 45.8666 3.99889 44.8191 3.99889C44.2514 3.99889 43.7311 4.07978 43.258 4.24155C42.7917 4.39659 42.3727 4.61903 42.001 4.90889V4.30222H39.568V20.0756ZM44.515 13.0787C43.5959 13.0787 42.9471 12.7753 42.5687 12.1687C42.1902 11.5553 42.001 10.7531 42.001 9.76222C42.001 8.77133 42.1868 7.97255 42.5585 7.36589C42.937 6.75248 43.5553 6.44578 44.4136 6.44578C45.0286 6.44578 45.5321 6.59744 45.9241 6.90078C46.3228 7.19737 46.6168 7.59844 46.806 8.104C46.9952 8.60281 47.0899 9.15555 47.0899 9.76222C47.0899 10.3756 46.9986 10.9351 46.8162 11.4407C46.6337 11.9395 46.3532 12.3372 45.9748 12.6338C45.5963 12.9304 45.1097 13.0787 44.515 13.0787Z" fill="white"/>
<path d="M58.809 15.2222V12.9371C58.1602 13.0247 57.5689 13.0517 57.035 13.018C56.5011 12.9843 56.1125 12.7753 55.8692 12.3911C55.7408 12.1889 55.6698 11.9193 55.6563 11.5822C55.6495 11.2384 55.6462 10.8542 55.6462 10.4296V6.42555H58.809V4.30222H55.6462V1.26889H52.8888V4.30222H51.0236V6.42555H52.8888V10.5913C52.8888 11.2452 52.8956 11.8316 52.9091 12.3507C52.9226 12.863 53.0646 13.3685 53.3349 13.8673C53.6322 14.3998 54.0648 14.7874 54.6324 15.0301C55.2069 15.266 55.8557 15.3907 56.5788 15.4042C57.3087 15.4244 58.0521 15.3638 58.809 15.2222Z" fill="white"/>
<path d="M65.4603 15.5256C66.7308 15.5256 67.7986 15.2121 68.6637 14.5852C69.5287 13.9583 70.1167 13.0652 70.4275 11.9058L67.6094 11.3193C67.4472 11.8451 67.2039 12.2496 66.8795 12.5327C66.5551 12.8158 66.082 12.9573 65.4603 12.9573C64.629 12.9573 64.0005 12.6641 63.5748 12.0777C63.1558 11.4845 62.9463 10.7127 62.9463 9.76222C62.9463 8.85222 63.1456 8.09389 63.5443 7.48722C63.9498 6.87381 64.5885 6.56711 65.4603 6.56711C65.9671 6.56711 66.4199 6.72552 66.8187 7.04233C67.2242 7.35915 67.508 7.80066 67.6702 8.36689L70.4275 7.63889C70.1842 6.51318 69.6233 5.62678 68.7448 4.97966C67.8729 4.32581 66.7916 3.99889 65.5008 3.99889C64.3857 3.99889 63.4193 4.24829 62.6016 4.74711C61.7838 5.24592 61.1486 5.93011 60.6958 6.79966C60.2497 7.66922 60.0267 8.65674 60.0267 9.76222C60.0267 10.8542 60.243 11.835 60.6755 12.7046C61.108 13.5741 61.7298 14.2617 62.5408 14.7672C63.3517 15.2728 64.3249 15.5256 65.4603 15.5256Z" fill="white"/>
<path d="M72.4349 15.2222H75.2327V9.68133C75.2327 9.00052 75.3071 8.45452 75.4558 8.04333C75.6112 7.63215 75.8072 7.32207 76.0437 7.11311C76.2803 6.8974 76.5337 6.75248 76.804 6.67833C77.0743 6.60418 77.3278 6.56711 77.5643 6.56711C78.1523 6.56711 78.6051 6.69855 78.9227 6.96144C79.2471 7.22433 79.4802 7.55126 79.6222 7.94222C79.7641 8.33318 79.8486 8.72414 79.8756 9.11511C79.9026 9.49933 79.9162 9.81615 79.9162 10.0656V15.2222H82.714V9.09489C82.714 8.91289 82.7005 8.62304 82.6735 8.22533C82.6464 7.82763 82.5687 7.38948 82.4403 6.91089C82.3119 6.42555 82.0957 5.96044 81.7915 5.51555C81.4942 5.07066 81.0752 4.70329 80.5345 4.41344C79.9939 4.12359 79.2944 3.97866 78.4361 3.97866C77.6454 3.97866 76.9561 4.11011 76.3681 4.373C75.7802 4.63589 75.2868 4.98641 74.8881 5.42455V0.66222H72.4349V15.2222Z" fill="white"/>
<path d="M88.3857 15.5256C89.2304 15.5256 89.94 15.3975 90.5145 15.1413C91.0957 14.8784 91.6296 14.4605 92.1162 13.8876V15.2222H94.5288V8.54889C94.5288 8.05007 94.5086 7.59844 94.468 7.194C94.4275 6.78955 94.299 6.38511 94.0828 5.98066C93.6976 5.25266 93.1299 4.74037 92.3797 4.44378C91.6296 4.14718 90.7713 3.99889 89.8049 3.99889C88.487 3.99889 87.4463 4.282 86.6826 4.84822C85.9189 5.41444 85.3986 6.14918 85.1215 7.05244L87.6152 7.84111C87.7909 7.34229 88.0984 6.99515 88.5377 6.79966C88.977 6.60418 89.3994 6.50644 89.8049 6.50644C90.4537 6.50644 90.9369 6.62778 91.2545 6.87044C91.5721 7.10637 91.758 7.48048 91.812 7.99278C90.7848 8.14107 89.8792 8.286 89.0953 8.42755C88.3113 8.56237 87.6558 8.72415 87.1286 8.91289C86.2501 9.23644 85.6317 9.67796 85.2735 10.2374C84.9153 10.7902 84.7363 11.4474 84.7363 12.2091C84.7363 12.8158 84.8748 13.3719 85.1519 13.8774C85.4357 14.3763 85.848 14.7773 86.3886 15.0807C86.936 15.3773 87.6017 15.5256 88.3857 15.5256ZM88.9736 13.3618C88.5005 13.3618 88.1255 13.2573 87.8484 13.0483C87.5713 12.8326 87.4328 12.5394 87.4328 12.1687C87.4328 11.8923 87.5206 11.6564 87.6963 11.4609C87.872 11.2587 88.1626 11.0767 88.5681 10.9149C88.879 10.8003 89.2608 10.6958 89.7136 10.6014C90.1732 10.5003 90.8659 10.3723 91.7918 10.2172C91.785 10.4801 91.7647 10.77 91.7309 11.0868C91.6972 11.3968 91.6228 11.6698 91.5079 11.9058C91.4336 12.0608 91.2917 12.2529 91.0822 12.4821C90.8794 12.7113 90.6023 12.9169 90.2509 13.0989C89.9062 13.2741 89.4805 13.3618 88.9736 13.3618Z" fill="white"/>
</svg>
