<svg width="21" height="30" viewBox="0 0 21 30" fill="none" xmlns="http://www.w3.org/2000/svg">
<path fill-rule="evenodd" clip-rule="evenodd" d="M10.4646 9.47005C16.2626 9.47005 21 14.1014 21 19.7696C21 25.3687 16.2626 30 10.4646 30C4.66667 30 0 25.3687 0 19.7696C0 14.1014 4.66667 9.47005 10.4646 9.47005ZM2.61616 11.1982C2.61616 11.1982 3.25253 10.6452 3.81818 10.2304C4.38384 9.81567 5.0202 9.47005 5.0202 9.47005C5.0202 9.47005 5.09091 4.49309 5.0202 3.73272C5.0202 3.04147 5.65657 2.41935 6.43434 2.41935C7.28283 2.41935 13.8586 2.41935 14.4949 2.41935C15.202 2.41935 15.9091 3.04147 15.9091 3.87097C15.9091 4.70046 15.9091 6.08295 15.9091 6.08295L18.3838 6.15207C18.3838 6.15207 18.3838 5.25346 18.3838 3.73272C18.3838 2.14286 17.0404 0 14.4949 0C11.8788 0 9.40404 0 6.71717 0C3.9596 0 2.54545 2.00461 2.54545 3.80184C2.54545 5.6682 2.61616 11.1982 2.61616 11.1982ZM10.4646 13.6175C13.9293 13.6175 16.7576 16.3825 16.7576 19.7696C16.7576 23.0876 13.9293 25.8525 10.4646 25.8525C7.07071 25.8525 4.24242 23.0876 4.24242 19.7696C4.24242 16.3825 7.07071 13.6175 10.4646 13.6175ZM10.4646 16.3134C11.6667 16.3134 12.6566 17.212 12.6566 18.3871C12.6566 19.0783 12.2323 19.7696 11.7374 20.1152V23.1567H9.26263V20.1152C8.69697 19.7696 8.34343 19.0783 8.34343 18.3871C8.34343 17.212 9.33333 16.3134 10.4646 16.3134ZM10.4646 11.8894C14.9192 11.8894 18.5253 15.4147 18.5253 19.7696C18.5253 24.0553 14.9192 27.5806 10.4646 27.5806C6.0101 27.5806 2.40404 24.0553 2.40404 19.7696C2.40404 15.4147 6.0101 11.8894 10.4646 11.8894Z" fill="#3BBBBC"/>
</svg>
