<svg width="8" height="7" viewBox="0 0 8 7" fill="none" xmlns="http://www.w3.org/2000/svg">
<path d="M7.76567 0.834409C7.91039 0.979174 7.99991 1.17914 7.99991 1.4C7.99991 1.62086 7.91039 1.82085 7.76567 1.96561L3.76567 5.96561C3.62091 6.11033 3.42094 6.19985 3.20008 6.19985C2.97922 6.19985 2.77923 6.11033 2.63447 5.96561L0.234469 3.56561C0.0837814 3.41994 -0.00976562 3.21599 -0.00976562 2.99017C-0.00976562 2.54835 0.348406 2.19017 0.790235 2.19017C1.01603 2.19017 1.21998 2.28372 1.36545 2.43417L3.20008 4.2688L6.63448 0.834393C6.77925 0.689674 6.97922 0.600159 7.20008 0.600159C7.42094 0.600159 7.62092 0.689674 7.76569 0.834393L7.76567 0.834409Z" fill="#333333"/>
</svg>
